<svg xmlns="http://www.w3.org/2000/svg" xmlns:xlink="http://www.w3.org/1999/xlink" width="1080" zoomAndPan="magnify" viewBox="0 0 810 809.999993" height="1080" preserveAspectRatio="xMidYMid meet" version="1.0"><path fill="#ffffff" d="M 520.035156 231.066406 L 520.273438 434.386719 C 523.605469 431.699219 525.757812 425.566406 528.789062 422.859375 C 539.625 413.203125 566.789062 414.523438 579.074219 421.09375 C 600.652344 432.628906 605.675781 460.109375 602.820312 482.496094 L 627.585938 482.496094 L 628.207031 483.292969 C 627.878906 510.945312 674.210938 516.898438 678.292969 488.859375 C 680.121094 468.523438 663 463.933594 646.222656 464.574219 L 646.222656 445.941406 L 646.925781 445.238281 C 675.78125 449.542969 688.417969 409.207031 657.300781 404.675781 C 642.644531 403.835938 634.449219 415.109375 633.953125 428.730469 L 606.59375 428.730469 C 605.347656 380.121094 687.121094 366.03125 703.066406 410.332031 C 708.308594 429.863281 698.550781 446.796875 679.238281 452.078125 C 694.492188 455.519531 706.230469 464.902344 707.542969 481.335938 C 712.078125 539.632812 609.796875 544.769531 601.171875 490.523438 C 596.160156 510.390625 578.476562 526.261719 557.765625 527.789062 C 550.46875 528.328125 532.957031 527.316406 527.503906 521.976562 C 525.039062 519.5625 523.265625 513.703125 520.265625 511.28125 L 520.265625 524.960938 L 492.90625 524.960938 L 492.90625 362.683594 C 489.554688 365.488281 487.792969 371.09375 484.648438 374.003906 C 477.480469 380.65625 460.476562 381.808594 451.164062 381.074219 C 398.289062 376.882812 395.21875 286.363281 444.78125 271.394531 C 455.25 268.230469 472.410156 268.09375 482.378906 272.960938 C 488.109375 275.761719 488.917969 281.292969 492.90625 285.789062 L 492.90625 231.066406 Z M 462.140625 288.75 C 429.796875 292.460938 430.460938 358.882812 462.496094 361.734375 C 504.652344 366.765625 504.21875 282.628906 462.140625 288.75 Z M 543.75 435.464844 C 520.125 438.140625 517.84375 467.984375 521.355469 486.375 C 526.582031 513.816406 562.351562 516.644531 572.039062 490.171875 C 579.921875 468.636719 573.328125 432.105469 543.75 435.464844 Z M 543.75 435.464844 " fill-opacity="1" fill-rule="nonzero"/><path fill="#ffffff" d="M 102.308594 240.03125 C 128.28125 242.210938 170.804688 233.386719 192.886719 250.164062 C 211.363281 265.628906 206.859375 296.542969 183.441406 304.175781 C 198.511719 307.453125 209.730469 319.410156 209.390625 335.316406 C 222.058594 314.484375 249.683594 313.320312 271.65625 313.621094 L 271.65625 301.589844 C 269.257812 281.011719 235.507812 285.742188 237.21875 306.539062 L 210.328125 306.539062 C 210.34375 269.714844 260.714844 260.144531 286.507812 276.824219 C 298.335938 285.261719 299.039062 299.550781 299.503906 312.886719 C 299.398438 334.664062 299.453125 357.644531 300.667969 378.710938 C 300.667969 378.710938 274.71875 378.710938 274.71875 378.710938 L 274.078125 377.933594 C 273.773438 373.695312 273.164062 369.488281 272.574219 365.289062 C 272.46875 364.550781 273.113281 363.421875 271.890625 363.613281 C 271.335938 363.796875 268.199219 372.90625 266.941406 374.242188 C 246.472656 387.675781 209.632812 382.792969 206.308594 354.179688 C 186.855469 391.078125 136.253906 375.464844 102.292969 378.710938 L 102.292969 240.023438 Z M 129.675781 261.734375 L 129.675781 296.40625 C 136.769531 298.980469 158.574219 297.050781 165.515625 294.984375 C 180.074219 289.363281 179.199219 266.25 162.328125 262.808594 C 151.921875 260.675781 140.28125 262.230469 129.675781 261.734375 Z M 129.675781 356.550781 C 133.84375 356.234375 166.441406 357.644531 169.433594 355.027344 C 184.035156 349.484375 184.640625 325.328125 169.628906 319.664062 C 162.03125 317.4375 137.460938 315.441406 129.675781 318.105469 Z M 271.664062 330.609375 C 218.894531 322.636719 228.210938 379.066406 265.304688 356.566406 C 273.105469 349.335938 271.679688 339.871094 271.664062 330.609375 Z M 271.664062 330.609375 " fill-opacity="1" fill-rule="nonzero"/><path fill="#ffffff" d="M 233.691406 386.746094 L 234.75 388.515625 L 257.273438 502.328125 L 257.976562 502.792969 L 282.105469 389.160156 L 320.761719 389.300781 L 344.550781 503.738281 L 370.019531 386.746094 L 396.90625 386.746094 L 361.253906 524.917969 L 324.246094 524.511719 L 300.675781 410.796875 L 276.164062 524.511719 L 239.804688 524.992188 L 204.675781 386.746094 Z M 233.691406 386.746094 " fill-opacity="1" fill-rule="nonzero"/><path fill="#ffffff" d="M 489.609375 479.203125 L 414.128906 479.203125 C 412.941406 511.972656 453.40625 520.199219 460.828125 490.53125 L 488.191406 490.53125 C 471.421875 554.136719 375.195312 532.207031 386.300781 465.300781 C 393.898438 391.539062 501.855469 404.078125 489.601562 479.210938 Z M 461.300781 460.808594 C 460.371094 425.902344 417.253906 427.304688 414.601562 460.808594 Z M 461.300781 460.808594 " fill-opacity="1" fill-rule="nonzero"/><path fill="#ffffff" d="M 591.976562 378.71875 L 590.085938 363.15625 L 583.925781 374.683594 C 506.542969 406.636719 498.742188 303 589.621094 313.628906 C 589.507812 303.03125 590.390625 290.558594 576.996094 288.742188 C 563.761719 286.949219 555.539062 293.121094 554.714844 306.546875 L 527.828125 306.546875 C 527.960938 260.378906 613.46875 253.164062 616.507812 301.597656 C 618.808594 324 615.90625 347.960938 617.933594 370.933594 C 618.03125 372.023438 619.597656 378.71875 618.164062 378.71875 Z M 589.613281 330.609375 C 543.78125 324.039062 542.722656 365.339844 572.339844 361.695312 C 587.992188 358.890625 590.789062 344.136719 589.613281 330.609375 Z M 589.613281 330.609375 " fill-opacity="1" fill-rule="nonzero"/><path fill="#ffffff" d="M 308.933594 378.71875 L 308.933594 271.636719 L 335.585938 271.636719 L 336.292969 272.339844 L 336.292969 288.613281 L 344.671875 276.335938 C 359.78125 265.867188 388.628906 266.070312 400.90625 280.84375 C 407.363281 288.621094 408.539062 298.875 408.960938 308.648438 C 409.230469 331.648438 409.507812 355.941406 408.234375 378.71875 L 381.816406 378.71875 L 381.113281 378.015625 C 379.726562 368.28125 385.058594 301.453125 376.589844 294.796875 C 370.792969 287.46875 357.382812 286.84375 349.824219 291.53125 C 327.71875 305.167969 340.359375 357.1875 335.585938 378.71875 Z M 308.933594 378.71875 " fill-opacity="1" fill-rule="nonzero"/><path fill="#ffffff" d="M 630.660156 549.96875 C 630.113281 540.976562 635.152344 536.976562 643.898438 538.378906 L 644.339844 543.367188 C 639.449219 543.058594 637.597656 545.101562 638.203125 549.976562 L 643.867188 549.976562 C 643.867188 549.976562 643.867188 555.164062 643.867188 555.164062 L 638.203125 555.164062 C 638.203125 555.164062 638.203125 578.28125 638.203125 578.28125 L 631.363281 578.28125 L 630.660156 577.574219 L 630.660156 555.164062 L 623.113281 555.164062 L 623.113281 570.496094 C 623.113281 573.636719 626.347656 573.839844 628.777344 573.5625 L 628.5 578.332031 C 624.367188 579.277344 617.054688 579.472656 616.035156 574.265625 C 616.035156 574.265625 616.035156 555.164062 616.035156 555.164062 L 613.507812 555.234375 L 605.675781 578.070312 L 597.390625 577.824219 L 592.6875 557.519531 L 587.976562 577.824219 C 585.71875 578.371094 579.988281 579.277344 579 576.871094 C 575.632812 568.621094 573.710938 558.496094 570.742188 549.984375 L 578.761719 549.984375 L 583.710938 571.214844 L 588.210938 550.003906 L 597.105469 550.027344 C 599.4375 556.453125 598.859375 565.175781 602.332031 570.734375 L 606.585938 549.976562 L 616.019531 549.976562 L 616.019531 543.367188 L 623.09375 543.367188 L 623.09375 549.976562 L 630.636719 549.976562 Z M 630.660156 549.96875 " fill-opacity="1" fill-rule="nonzero"/><path fill="#ffffff" d="M 462.953125 549.96875 L 463.890625 553.265625 C 466.253906 547.753906 475.140625 548.023438 478.761719 552.082031 C 479.59375 553.011719 479.316406 554.535156 480.628906 554.210938 C 482.730469 547.597656 493.417969 547.566406 496.777344 552.9375 C 499.042969 553.996094 497.8125 576.164062 498.097656 578.273438 L 491.023438 578.273438 C 490.71875 574.550781 491.984375 558.921875 489.628906 555.847656 C 486.742188 552.335938 482.390625 554.894531 481.328125 558.898438 C 480.234375 561.246094 480.757812 575.550781 480.652344 578.273438 L 473.578125 578.273438 L 473.578125 559.640625 C 473.386719 555.703125 469.523438 552.832031 465.847656 555.21875 C 461.21875 558.613281 465.5625 573.464844 462.960938 578.273438 L 456.121094 578.273438 L 456.121094 549.96875 L 462.960938 549.96875 Z M 462.953125 549.96875 " fill-opacity="1" fill-rule="nonzero"/><path fill="#ffffff" d="M 544.800781 549.96875 L 553.289062 549.96875 L 544.011719 563.878906 L 553.761719 577.800781 L 553.761719 549.96875 L 560.84375 549.96875 L 560.84375 578.265625 L 544.800781 578.265625 L 539.378906 568.84375 L 533.242188 578.265625 L 524.984375 578.265625 L 534.742188 563.878906 L 525.457031 549.96875 L 533.714844 549.96875 L 539.378906 558.914062 Z M 544.800781 549.96875 " fill-opacity="1" fill-rule="nonzero"/><path fill="#ffffff" d="M 526.875 566.003906 L 507.058594 566.003906 C 506.324219 574.5 516.621094 576.765625 519.5625 568.828125 L 526.402344 568.828125 C 524.191406 582.824219 501.367188 581.984375 499.550781 568.078125 C 496.371094 543.691406 528.78125 542.324219 526.875 565.996094 Z M 507.058594 561.285156 L 519.324219 561.285156 C 518.984375 551.878906 507.554688 552.136719 507.058594 561.285156 Z M 507.058594 561.285156 " fill-opacity="1" fill-rule="nonzero"/><path fill="#ffffff" d="M 567.328125 569.886719 C 573.367188 569.550781 574.019531 579.929688 566.296875 578.714844 C 561.71875 577.996094 561.996094 570.1875 567.328125 569.886719 Z M 567.328125 569.886719 " fill-opacity="1" fill-rule="nonzero"/><path fill="#ffffff" d="M 555.984375 539.691406 C 563.332031 537.996094 563.015625 548.617188 555.984375 547.035156 C 552.367188 546.226562 552.351562 540.523438 555.984375 539.691406 Z M 555.984375 539.691406 " fill-opacity="1" fill-rule="nonzero"/></svg>