<?xml version="1.0" encoding="UTF-8"?>
<svg id="Capa_1" data-name="Capa 1" xmlns="http://www.w3.org/2000/svg" viewBox="0 0 1080 1080">
  <path d="M693.38,308.09l.32,271.09c4.44-3.58,7.31-11.76,11.35-15.37,14.45-12.87,50.67-11.11,67.05-2.35,28.77,15.38,35.47,52.02,31.66,81.87h33.02l.83,1.06c-.44,36.87,61.34,44.81,66.78,7.42,2.44-27.11-20.39-33.23-42.76-32.38v-24.84l.94-.94c38.47,5.74,55.32-48.04,13.83-54.08-19.54-1.12-30.47,13.91-31.13,32.07h-36.48c-1.66-64.81,107.37-83.6,128.63-24.53,6.99,26.04-6.02,48.62-31.77,55.66,20.34,4.59,35.99,17.1,37.74,39.01,6.05,77.73-130.33,84.58-141.83,12.25-6.68,26.49-30.26,47.65-57.87,49.69-9.73.72-33.08-.63-40.35-7.75-3.29-3.22-5.65-11.03-9.65-14.26v18.24h-36.48v-216.37c-4.47,3.74-6.82,11.21-11.01,15.09-9.56,8.87-32.23,10.41-44.65,9.43-70.5-5.59-74.59-126.28-8.51-146.24,13.96-4.22,36.84-4.4,50.13,2.09,7.64,3.73,8.72,11.11,14.04,17.1v-72.96h36.17ZM616.19,385c-43.13,4.95-42.24,93.51.47,97.31,56.21,6.71,55.63-105.47-.47-97.31ZM725,580.62c-31.5,3.57-34.54,43.36-29.86,67.88,6.97,36.59,54.66,40.36,67.58,5.06,10.51-28.71,1.72-77.42-37.72-72.94Z"/>
  <path d="M136.41,320.04c34.63,2.91,91.33-8.86,120.77,13.51,24.64,20.62,18.63,61.84-12.59,72.02,20.09,4.37,35.05,20.31,34.6,41.52,16.89-27.78,53.72-29.33,83.02-28.93v-16.04c-3.2-27.44-48.2-21.13-45.92,6.6h-35.85c.02-49.1,67.18-61.86,101.57-39.62,15.77,11.25,16.71,30.3,17.33,48.08-.14,29.04-.07,59.68,1.55,87.77,0,0-34.6,0-34.6,0l-.85-1.04c-.41-5.65-1.22-11.26-2.01-16.86-.14-.98.72-2.49-.91-2.23-.74.24-4.92,12.39-6.6,14.17-27.29,17.91-76.41,11.4-80.84-26.75-25.94,49.2-93.41,28.38-138.69,32.71v-184.92ZM172.9,348.98v46.23c9.46,3.43,38.53.86,47.79-1.9,19.41-7.49,18.24-38.31-4.25-42.9-13.88-2.84-29.4-.77-43.54-1.43ZM172.9,475.4c5.56-.42,49.02,1.46,53.01-2.03,19.47-7.39,20.28-39.6.26-47.15-10.13-2.97-42.89-5.63-53.27-2.08v51.26ZM362.22,440.81c-70.36-10.63-57.94,64.61-8.48,34.61,10.4-9.64,8.5-22.26,8.48-34.61Z"/>
  <polygon points="311.59 515.66 313 518.02 343.03 669.77 343.97 670.39 376.14 518.88 427.68 519.07 459.4 671.65 493.36 515.66 529.21 515.66 481.67 699.89 432.33 699.35 400.9 547.73 368.22 699.35 319.74 699.99 272.9 515.66 311.59 515.66"/>
  <path d="M652.81,638.94h-100.64c-1.58,43.69,52.37,54.66,62.27,15.1h36.48c-22.36,84.81-150.66,55.57-135.85-33.64,10.13-98.35,154.07-81.63,137.73,18.55ZM615.07,614.41c-1.24-46.54-58.73-44.67-62.27,0h62.27Z"/>
  <path d="M789.3,504.96l-2.52-20.75-8.21,15.37c-103.18,42.6-113.58-95.58,7.59-81.41-.15-14.13,1.03-30.76-16.83-33.18-17.65-2.39-28.61,5.84-29.71,23.74h-35.85c.18-61.56,114.19-71.18,118.24-6.6,3.07,29.87-.8,61.82,1.9,92.45.13,1.45,2.22,10.38.31,10.38h-34.91ZM786.15,440.81c-61.11-8.76-62.52,46.31-23.03,41.45,20.87-3.74,24.6-23.41,23.03-41.45Z"/>
  <path d="M411.91,504.96v-142.78h35.54l.94.94v21.7l11.17-16.37c20.15-13.96,58.61-13.69,74.98,6.01,8.61,10.37,10.18,24.04,10.74,37.07.36,30.67.73,63.06-.97,93.43h-35.22l-.94-.94c-1.85-12.98,5.26-102.08-6.03-110.96-7.73-9.77-25.61-10.6-35.69-4.35-29.47,18.18-12.62,87.54-18.98,116.25h-35.54Z"/>
  <path d="M840.88,733.29c-.73-11.99,5.99-17.32,17.65-15.45l.59,6.65c-6.52-.41-8.99,2.31-8.18,8.81h7.55s0,6.92,0,6.92h-7.55s0,30.82,0,30.82h-9.12l-.94-.94v-29.88h-10.06v20.44c0,4.19,4.31,4.46,7.55,4.09l-.37,6.36c-5.51,1.26-15.26,1.52-16.62-5.42,0,0,0-25.47,0-25.47l-3.37.09-10.44,30.45-11.05-.33-6.27-27.07-6.28,27.07c-3.01.73-10.65,1.94-11.97-1.27-4.49-11-7.05-24.5-11.01-35.85h10.69l6.6,28.31,6-28.28,11.86.03c3.11,8.57,2.34,20.2,6.97,27.61l5.67-27.68h12.58v-8.81h9.43v8.81h10.06Z"/>
  <path d="M617.27,733.29l1.25,4.4c3.15-7.35,15-6.99,19.83-1.58,1.11,1.24.74,3.27,2.49,2.84,2.8-8.82,17.05-8.86,21.53-1.7,3.02,1.41,1.38,30.97,1.76,33.78h-9.43c-.41-4.96,1.28-25.8-1.86-29.9-3.85-4.68-9.65-1.27-11.07,4.07-1.46,3.13-.76,22.2-.9,25.83h-9.43v-24.84c-.26-5.25-5.41-9.08-10.31-5.9-6.17,4.53-.38,24.33-3.85,30.74h-9.12v-37.74h9.12Z"/>
  <polygon points="726.4 733.29 737.72 733.29 725.35 751.84 738.35 770.4 738.35 733.29 747.79 733.29 747.79 771.02 726.4 771.02 719.17 758.46 710.99 771.02 699.98 771.02 712.99 751.84 700.61 733.29 711.62 733.29 719.17 745.22 726.4 733.29"/>
  <path d="M702.5,754.67h-26.42c-.98,11.33,12.75,14.35,16.67,3.77h9.12c-2.95,18.66-33.38,17.54-35.8-1-4.24-32.52,38.97-34.34,36.43-2.78ZM676.08,748.38h16.35c-.45-12.54-15.69-12.2-16.35,0Z"/>
  <path d="M756.44,759.85c8.05-.45,8.92,13.39-1.38,11.77-6.1-.96-5.73-11.37,1.38-11.77Z"/>
  <path d="M741.31,719.59c9.8-2.26,9.38,11.9,0,9.79-4.82-1.08-4.84-8.68,0-9.79Z"/>
</svg>