<svg xmlns="http://www.w3.org/2000/svg" xmlns:xlink="http://www.w3.org/1999/xlink" width="1080" zoomAndPan="magnify" viewBox="0 0 810 809.999993" height="1080" preserveAspectRatio="xMidYMid meet" version="1.0"><defs><clipPath id="65d501f10b"><path d="M 23 24.300781 L 789 24.300781 L 789 785.550781 L 23 785.550781 Z M 23 24.300781 " clip-rule="nonzero"/></clipPath></defs><g clip-path="url(#65d501f10b)"><path fill="#ffffff" d="M 361.585938 25.242188 C 297.390625 33.3125 240.660156 54.851562 187.878906 91.070312 C 122.738281 135.785156 72.105469 202.125 45.15625 277.90625 C 16.0625 359.78125 16.0625 450.925781 45.15625 532.800781 C 59.316406 572.707031 80.6875 611.242188 107.035156 644.285156 C 160.757812 711.570312 238.429688 760.144531 322.105469 778.683594 C 334.722656 781.429688 340.902344 782.375 358.582031 784.261719 C 375.832031 786.066406 434.449219 786.066406 449.039062 784.261719 C 454.789062 783.574219 462.511719 782.632812 466.375 782.117188 C 476.414062 780.828125 498.558594 775.25 514.863281 769.757812 C 591.160156 744.269531 661.707031 692.691406 711.398438 625.917969 C 765.46875 553.3125 792.414062 469.207031 787.78125 387.761719 C 787.265625 377.71875 786.238281 364.761719 785.464844 358.925781 C 772.503906 251.300781 712.601562 152.089844 623.6875 91.070312 C 571.421875 55.109375 513.40625 33.054688 451.957031 25.585938 C 443.632812 24.644531 432.644531 24.300781 404.324219 24.386719 C 384.15625 24.472656 364.933594 24.902344 361.585938 25.242188 Z M 432.472656 36.316406 C 497.269531 41.378906 556.832031 61.804688 610.644531 97.421875 C 684.449219 146.339844 739.804688 222.980469 762.464844 307.429688 C 772.589844 345.363281 776.367188 376.347656 775.421875 413.9375 C 774.480469 450.582031 768.902344 479.933594 755.941406 517.351562 C 718.609375 624.632812 625.0625 718.179688 517.78125 755.511719 C 480.535156 768.472656 450.925781 774.050781 414.367188 774.992188 C 315.496094 777.484375 219.632812 740.234375 149.257812 671.835938 C 112.011719 635.617188 85.234375 596.738281 65.152344 549.707031 C 7.222656 414.28125 36.832031 254.21875 139.304688 148.828125 C 203.757812 82.574219 286.144531 43.695312 377.460938 36.402344 C 390.679688 35.371094 419.171875 35.285156 432.472656 36.316406 Z M 432.472656 36.316406 " fill-opacity="1" fill-rule="nonzero"/></g><path fill="#ffffff" d="M 508.085938 172.34375 C 483.28125 177.066406 464.488281 190.96875 444.144531 219.460938 C 440.800781 224.269531 439.769531 225.125 438.308594 224.695312 C 437.195312 224.351562 397.886719 233.792969 336.179688 249.15625 C 236.113281 274.214844 227.871094 276.535156 233.023438 278.421875 C 233.878906 278.765625 242.203125 279.28125 251.386719 279.625 C 302.367188 281.425781 351.972656 271.726562 396.773438 251.042969 C 407.5 246.152344 422.175781 238.171875 430.929688 232.59375 C 434.621094 230.273438 437.796875 228.472656 437.96875 228.730469 C 439.082031 229.847656 424.664062 256.535156 415.910156 269.582031 L 410.503906 277.648438 L 309.234375 314.039062 C 253.535156 334.035156 207.359375 350.425781 206.675781 350.425781 C 205.988281 350.425781 205.816406 350.683594 206.246094 351.199219 C 206.761719 351.628906 212.683594 352.832031 219.546875 353.945312 C 230.617188 355.75 234.824219 356.007812 257.308594 356.007812 C 277.820312 356.007812 284.34375 355.75 291.640625 354.460938 C 302.710938 352.574219 315.496094 349.398438 323.050781 346.652344 C 327.941406 344.847656 328.628906 344.761719 328.285156 345.964844 C 327.855469 347.335938 323.308594 357.207031 309.574219 386.644531 C 287.605469 433.675781 279.367188 461.738281 275.761719 501.476562 C 271.214844 551.082031 280.910156 603.863281 304.511719 658.101562 C 307 663.765625 309.320312 668.746094 309.660156 669.089844 C 310.433594 669.945312 321.675781 650.378906 327.339844 638.277344 C 339.011719 613.304688 346.308594 588.757812 350.941406 559.40625 C 353.257812 545.160156 354.117188 510.230469 352.660156 493.582031 C 350 463.371094 342.53125 429.726562 331.546875 398.832031 C 329.402344 392.824219 327.683594 387.417969 327.683594 386.644531 C 327.683594 385.957031 329.914062 381.496094 332.578125 376.859375 C 337.039062 369.136719 337.640625 368.535156 338.667969 369.910156 C 340.816406 372.828125 354.976562 402.351562 358.066406 410.332031 C 372.398438 447.320312 379.351562 488.6875 376.6875 521.988281 C 373.085938 567.300781 360.8125 605.492188 334.121094 654.242188 L 330.085938 661.535156 L 337.726562 653.46875 C 368.535156 620.511719 389.390625 586.871094 398.488281 555.285156 C 402.695312 540.867188 404.152344 531 404.667969 515.292969 C 405.183594 498.558594 404.238281 487.828125 400.976562 474.871094 C 392.394531 440.371094 375.488281 410.160156 345.792969 376.261719 C 338.585938 368.019531 338.070312 367.164062 339.097656 365.53125 C 339.785156 364.503906 345.019531 355.578125 350.769531 345.707031 L 361.328125 327.683594 L 369.050781 322.105469 C 379.179688 314.8125 396.773438 297.472656 405.699219 285.886719 C 409.644531 280.910156 413.421875 276.449219 414.195312 276.191406 C 415.050781 275.847656 418.140625 274.730469 421.230469 273.617188 C 424.320312 272.5 431.273438 270.011719 436.679688 268.039062 L 446.550781 264.519531 L 443.546875 267.78125 C 441.828125 269.582031 435.734375 276.019531 429.984375 282.027344 L 419.515625 293.011719 L 419.515625 305.199219 C 419.515625 340.644531 426.636719 385.441406 437.539062 419.515625 C 457.964844 483.539062 494.609375 533.660156 550.652344 574.253906 C 555.972656 578.117188 560.523438 581.292969 560.78125 581.292969 C 561.378906 581.292969 560.4375 558.289062 559.320312 545.246094 C 552.199219 464.914062 514.519531 393.511719 447.578125 333.691406 L 440.886719 327.683594 L 440.371094 317.300781 C 439.683594 303.140625 441.65625 287.519531 446.292969 271.210938 C 448.179688 264.605469 448.179688 264.519531 455.730469 258.167969 C 487.316406 231.21875 525.078125 211.996094 562.667969 203.671875 L 571.421875 201.695312 L 571.421875 183.84375 L 567.472656 182.214844 C 559.664062 178.867188 548.507812 175.175781 541.210938 173.546875 C 531.171875 171.316406 516.066406 170.800781 508.085938 172.34375 Z M 508.085938 172.34375 " fill-opacity="1" fill-rule="nonzero"/><path fill="#ffffff" d="M 354.03125 214.398438 C 322.621094 218.859375 292.066406 231.5625 263.316406 251.988281 C 256.878906 256.621094 243.578125 267.007812 243.578125 267.4375 C 243.578125 267.609375 425.179688 222.292969 427.238281 221.519531 C 428.613281 221.09375 413.679688 217.230469 402.351562 215.171875 C 392.050781 213.28125 364.761719 212.851562 354.03125 214.398438 Z M 354.03125 214.398438 " fill-opacity="1" fill-rule="nonzero"/><path fill="#ffffff" d="M 446.976562 305.285156 C 446.976562 305.457031 451.183594 308.976562 456.332031 313.007812 C 469.207031 323.136719 486.113281 338.496094 493.667969 346.910156 C 495.125 348.539062 497.527344 351.113281 499.074219 352.660156 C 503.105469 356.691406 516.925781 373.941406 521.042969 379.949219 C 523.019531 382.867188 525.164062 385.871094 525.9375 386.730469 C 526.707031 387.503906 527.910156 389.304688 528.597656 390.59375 C 529.195312 391.878906 531.34375 395.398438 533.230469 398.488281 C 537.949219 406.039062 550.050781 430.757812 552.539062 437.96875 C 553.140625 439.597656 553.914062 441.742188 554.34375 442.6875 C 556.230469 447.0625 561.121094 463.027344 562.839844 470.578125 C 568.761719 496.414062 570.90625 514.863281 570.90625 541.210938 C 570.992188 550.480469 571.164062 558.117188 571.421875 558.117188 C 571.679688 558.117188 572.539062 555.285156 573.394531 551.855469 C 574.253906 548.507812 575.113281 544.902344 575.371094 543.957031 C 576.570312 539.582031 577.601562 535.117188 578.03125 532.113281 C 578.289062 530.398438 578.800781 528.683594 579.230469 528.425781 C 579.660156 528.167969 580.003906 526.449219 580.003906 524.648438 C 580.003906 522.847656 580.433594 521.042969 580.863281 520.785156 C 581.378906 520.527344 581.71875 518.382812 581.71875 516.152344 C 581.71875 513.921875 582.0625 511.773438 582.492188 511.257812 C 582.921875 510.832031 583.523438 507.570312 583.867188 504.050781 C 584.894531 494.179688 584.636719 452.8125 583.609375 446.550781 C 583.09375 443.460938 582.40625 439.425781 582.148438 437.539062 C 581.804688 435.648438 581.292969 433.332031 580.949219 432.386719 C 580.519531 431.445312 579.746094 428.957031 579.144531 426.808594 C 578.632812 424.664062 577.773438 422.261719 577.34375 421.488281 C 576.914062 420.628906 576.570312 419.429688 576.570312 418.742188 C 576.570312 416.855469 569.363281 399.777344 567.988281 398.488281 C 567.730469 398.230469 566.960938 396.859375 566.273438 395.484375 C 564.210938 391.363281 556.316406 379.265625 552.199219 373.855469 C 548.164062 368.621094 530.742188 351.285156 524.132812 345.964844 C 512.460938 336.609375 476.160156 315.238281 471.953125 315.238281 C 471.4375 315.238281 471.007812 314.8125 471.007812 314.382812 C 471.007812 313.867188 470.066406 313.523438 468.863281 313.523438 C 467.660156 313.523438 466.71875 313.09375 466.71875 312.664062 C 466.71875 312.148438 466.117188 311.808594 465.429688 311.808594 C 464.742188 311.808594 463.457031 311.464844 462.597656 311.035156 C 461.824219 310.605469 460.195312 309.917969 458.992188 309.402344 C 457.792969 308.890625 454.960938 307.6875 452.644531 306.742188 C 448.609375 305.027344 446.976562 304.597656 446.976562 305.285156 Z M 446.976562 305.285156 " fill-opacity="1" fill-rule="nonzero"/><path fill="#ffffff" d="M 402.523438 313.523438 C 392.824219 346.824219 389.046875 371.539062 389.132812 401.0625 C 389.132812 416.941406 389.476562 422.347656 391.023438 431.445312 C 401.320312 491.433594 435.136719 533.660156 497.613281 564.554688 C 514.007812 572.707031 531.171875 580.003906 532.800781 579.402344 C 533.316406 579.230469 530.226562 576.65625 526.019531 573.566406 C 514.09375 564.8125 502.335938 555.03125 492.550781 545.675781 C 480.019531 533.574219 464.65625 516.582031 458.308594 507.570312 C 450.238281 496.070312 445.261719 488.601562 445.261719 487.746094 C 445.261719 487.316406 444.917969 486.886719 444.402344 486.886719 C 443.976562 486.886719 443.546875 486.457031 443.546875 485.941406 C 443.546875 485.425781 442.773438 483.882812 441.828125 482.59375 C 439.167969 478.90625 431.53125 464.316406 428.699219 457.707031 C 426.382812 452.300781 424.921875 448.78125 423.035156 444.660156 C 422.089844 442.429688 421.230469 440.027344 421.230469 439.339844 C 421.230469 438.652344 420.886719 437.796875 420.375 437.539062 C 419.945312 437.28125 419.515625 436.078125 419.515625 434.964844 C 419.515625 433.847656 419.171875 432.644531 418.65625 432.386719 C 418.226562 432.132812 417.796875 430.929688 417.796875 429.8125 C 417.796875 428.699219 417.457031 427.496094 416.941406 427.238281 C 416.511719 426.980469 416.082031 425.609375 416.082031 424.234375 C 416.082031 422.863281 415.738281 421.488281 415.222656 421.230469 C 414.792969 420.972656 414.367188 419.601562 414.367188 418.226562 C 414.367188 416.855469 414.023438 415.480469 413.507812 415.222656 C 413.078125 414.964844 412.648438 413.59375 412.648438 412.304688 C 412.648438 411.019531 412.304688 409.644531 411.875 409.214844 C 411.449219 408.703125 410.847656 406.726562 410.589844 404.667969 C 410.332031 402.695312 409.816406 399.433594 409.558594 397.371094 C 409.300781 395.398438 408.703125 393.425781 408.273438 392.910156 C 407.84375 392.480469 407.5 389.992188 407.5 387.332031 C 407.5 384.671875 407.15625 382.183594 406.726562 381.753906 C 405.441406 380.464844 404.839844 370.253906 404.238281 338.839844 C 403.722656 312.835938 403.550781 310.089844 402.523438 313.523438 Z M 402.523438 313.523438 " fill-opacity="1" fill-rule="nonzero"/><path fill="#ffffff" d="M 289.921875 363.042969 C 255.335938 402.09375 234.652344 440.027344 226.757812 478.820312 C 224.011719 492.550781 222.980469 516.238281 224.609375 530.484375 C 227.957031 559.75 239.457031 589.617188 258.597656 619.140625 C 266.320312 631.070312 287.175781 658.101562 289.921875 659.820312 C 290.351562 660.078125 288.378906 655.355469 285.460938 649.347656 C 268.296875 613.132812 258.082031 576.226562 254.648438 538.378906 C 253.277344 522.675781 254.132812 490.320312 256.367188 474.441406 C 261.515625 438.308594 274.046875 400.460938 292.667969 365.1875 C 295.929688 359.007812 298.503906 353.859375 298.332031 353.859375 C 298.160156 353.859375 294.386719 357.980469 289.921875 363.042969 Z M 289.921875 363.042969 " fill-opacity="1" fill-rule="nonzero"/></svg>