<svg xmlns="http://www.w3.org/2000/svg" xmlns:xlink="http://www.w3.org/1999/xlink" width="1080" zoomAndPan="magnify" viewBox="0 0 810 809.999993" height="1080" preserveAspectRatio="xMidYMid meet" version="1.0"><defs><clipPath id="13235b6615"><path d="M 23 24.300781 L 789 24.300781 L 789 785.550781 L 23 785.550781 Z M 23 24.300781 " clip-rule="nonzero"/></clipPath><clipPath id="cc0ebddd31"><path d="M 576.382812 52.230469 L 781.132812 52.230469 L 781.132812 256.980469 L 576.382812 256.980469 Z M 576.382812 52.230469 " clip-rule="nonzero"/></clipPath></defs><g clip-path="url(#13235b6615)"><path fill="#ffffff" d="M 361.652344 25.246094 C 297.445312 33.3125 240.703125 54.859375 187.914062 91.082031 C 122.761719 135.804688 72.117188 202.15625 45.164062 277.953125 C 16.0625 359.84375 16.0625 451.003906 45.164062 532.894531 C 59.328125 572.808594 80.699219 611.351562 107.054688 644.398438 C 160.789062 711.699219 238.472656 760.28125 322.164062 778.824219 C 334.785156 781.570312 340.964844 782.515625 358.648438 784.402344 C 375.902344 786.207031 434.527344 786.207031 449.121094 784.402344 C 454.871094 783.714844 462.597656 782.773438 466.460938 782.257812 C 476.503906 780.96875 498.648438 775.390625 514.960938 769.894531 C 591.269531 744.402344 661.828125 692.8125 711.53125 626.03125 C 765.609375 553.410156 792.5625 469.289062 787.925781 387.828125 C 787.410156 377.785156 786.382812 364.824219 785.609375 358.984375 C 772.648438 251.34375 712.730469 152.113281 623.804688 91.082031 C 571.527344 55.117188 513.5 33.054688 452.039062 25.585938 C 443.714844 24.644531 432.726562 24.300781 404.398438 24.386719 C 384.226562 24.472656 365 24.902344 361.652344 25.246094 Z M 432.554688 36.316406 C 497.363281 41.382812 556.933594 61.8125 610.753906 97.433594 C 684.578125 146.363281 739.941406 223.015625 762.605469 307.480469 C 772.734375 345.421875 776.511719 376.410156 775.566406 414.007812 C 774.621094 450.660156 769.042969 480.019531 756.082031 517.445312 C 718.742188 624.742188 625.175781 718.308594 517.878906 755.648438 C 480.625 768.609375 451.007812 774.1875 414.441406 775.132812 C 315.554688 777.621094 219.675781 740.367188 149.285156 671.953125 C 112.03125 635.730469 85.25 596.84375 65.164062 549.804688 C 7.222656 414.351562 36.835938 254.261719 139.328125 148.851562 C 203.792969 82.585938 286.199219 43.699219 377.53125 36.402344 C 390.75 35.375 419.25 35.289062 432.554688 36.316406 Z M 432.554688 36.316406 " fill-opacity="1" fill-rule="nonzero"/></g><path fill="#ffffff" d="M 508.179688 172.371094 C 483.371094 177.09375 464.570312 191 444.226562 219.496094 C 440.878906 224.304688 439.851562 225.164062 438.390625 224.734375 C 437.273438 224.390625 397.960938 233.832031 336.242188 249.199219 C 236.15625 274.261719 227.914062 276.582031 233.066406 278.46875 C 233.921875 278.8125 242.25 279.328125 251.433594 279.671875 C 302.421875 281.472656 352.039062 271.773438 396.84375 251.085938 C 407.574219 246.195312 422.253906 238.210938 431.007812 232.632812 C 434.699219 230.3125 437.875 228.511719 438.046875 228.769531 C 439.164062 229.882812 424.742188 256.578125 415.988281 269.628906 L 410.578125 277.695312 L 309.289062 314.09375 C 253.582031 334.09375 207.398438 350.488281 206.710938 350.488281 C 206.027344 350.488281 205.855469 350.746094 206.28125 351.261719 C 206.796875 351.6875 212.722656 352.890625 219.589844 354.007812 C 230.660156 355.808594 234.867188 356.066406 257.355469 356.066406 C 277.871094 356.066406 284.394531 355.808594 291.691406 354.523438 C 302.765625 352.632812 315.554688 349.457031 323.109375 346.710938 C 328.003906 344.90625 328.6875 344.824219 328.347656 346.023438 C 327.917969 347.398438 323.367188 357.269531 309.632812 386.710938 C 287.660156 433.75 279.417969 461.820312 275.8125 501.5625 C 271.261719 551.179688 280.960938 603.96875 304.570312 658.21875 C 307.058594 663.886719 309.375 668.863281 309.71875 669.207031 C 310.492188 670.066406 321.734375 650.496094 327.402344 638.390625 C 339.074219 613.410156 346.371094 588.863281 351.007812 559.503906 C 353.324219 545.257812 354.183594 510.320312 352.722656 493.667969 C 350.0625 463.453125 342.59375 429.804688 331.609375 398.902344 C 329.460938 392.890625 327.746094 387.484375 327.746094 386.710938 C 327.746094 386.023438 329.976562 381.5625 332.636719 376.925781 C 337.101562 369.199219 337.703125 368.601562 338.730469 369.972656 C 340.878906 372.890625 355.042969 402.421875 358.132812 410.402344 C 372.46875 447.398438 379.421875 488.773438 376.757812 522.078125 C 373.152344 567.402344 360.878906 605.601562 334.183594 654.355469 L 330.148438 661.652344 L 337.789062 653.585938 C 368.605469 620.621094 389.464844 586.972656 398.5625 555.386719 C 402.769531 540.964844 404.226562 531.09375 404.742188 515.382812 C 405.257812 498.644531 404.3125 487.914062 401.050781 474.953125 C 392.46875 440.445312 375.558594 410.230469 345.855469 376.324219 C 338.648438 368.085938 338.132812 367.226562 339.160156 365.59375 C 339.847656 364.566406 345.085938 355.636719 350.835938 345.765625 L 361.394531 327.742188 L 369.121094 322.160156 C 379.25 314.863281 396.84375 297.523438 405.773438 285.9375 C 409.722656 280.957031 413.496094 276.496094 414.269531 276.238281 C 415.128906 275.894531 418.21875 274.777344 421.308594 273.660156 C 424.398438 272.546875 431.351562 270.058594 436.761719 268.082031 L 446.632812 264.5625 L 443.628906 267.824219 C 441.910156 269.628906 435.816406 276.066406 430.066406 282.074219 L 419.59375 293.0625 L 419.59375 305.25 C 419.59375 340.703125 426.71875 385.511719 437.617188 419.589844 C 458.046875 483.625 494.703125 533.753906 550.753906 574.355469 C 556.078125 578.21875 560.625 581.394531 560.882812 581.394531 C 561.484375 581.394531 560.539062 558.390625 559.425781 545.34375 C 552.300781 464.996094 514.617188 393.578125 447.660156 333.75 L 440.964844 327.742188 L 440.453125 317.355469 C 439.765625 303.191406 441.738281 287.566406 446.375 271.257812 C 448.261719 264.648438 448.261719 264.5625 455.816406 258.210938 C 487.40625 231.257812 525.175781 212.03125 562.773438 203.703125 L 571.527344 201.730469 L 571.527344 183.875 L 567.578125 182.242188 C 559.765625 178.894531 548.609375 175.203125 541.3125 173.574219 C 531.269531 171.34375 516.160156 170.828125 508.179688 172.371094 Z M 508.179688 172.371094 " fill-opacity="1" fill-rule="nonzero"/><path fill="#ffffff" d="M 354.097656 214.433594 C 322.679688 218.898438 292.121094 231.601562 263.367188 252.03125 C 256.929688 256.664062 243.621094 267.050781 243.621094 267.480469 C 243.621094 267.652344 425.257812 222.332031 427.316406 221.558594 C 428.691406 221.128906 413.753906 217.265625 402.425781 215.207031 C 392.125 213.316406 364.828125 212.886719 354.097656 214.433594 Z M 354.097656 214.433594 " fill-opacity="1" fill-rule="nonzero"/><path fill="#ffffff" d="M 447.0625 305.335938 C 447.0625 305.507812 451.265625 309.027344 456.417969 313.0625 C 469.292969 323.191406 486.203125 338.554688 493.757812 346.96875 C 495.214844 348.597656 497.621094 351.175781 499.164062 352.71875 C 503.199219 356.753906 517.019531 374.007812 521.140625 380.015625 C 523.113281 382.933594 525.261719 385.9375 526.03125 386.796875 C 526.804688 387.570312 528.007812 389.371094 528.695312 390.660156 C 529.292969 391.949219 531.441406 395.46875 533.328125 398.558594 C 538.050781 406.109375 550.152344 430.832031 552.644531 438.042969 C 553.242188 439.675781 554.015625 441.820312 554.445312 442.765625 C 556.332031 447.140625 561.226562 463.109375 562.945312 470.660156 C 568.867188 496.5 571.011719 514.953125 571.011719 541.308594 C 571.097656 550.578125 571.269531 558.21875 571.527344 558.21875 C 571.785156 558.21875 572.644531 555.386719 573.5 551.953125 C 574.359375 548.605469 575.21875 545 575.476562 544.054688 C 576.675781 539.675781 577.707031 535.210938 578.136719 532.207031 C 578.394531 530.492188 578.910156 528.773438 579.339844 528.515625 C 579.769531 528.261719 580.109375 526.542969 580.109375 524.742188 C 580.109375 522.9375 580.539062 521.136719 580.96875 520.878906 C 581.484375 520.621094 581.828125 518.472656 581.828125 516.242188 C 581.828125 514.011719 582.171875 511.863281 582.601562 511.351562 C 583.03125 510.921875 583.628906 507.660156 583.972656 504.140625 C 585.003906 494.269531 584.746094 452.894531 583.714844 446.628906 C 583.203125 443.535156 582.515625 439.503906 582.257812 437.613281 C 581.914062 435.726562 581.398438 433.40625 581.054688 432.464844 C 580.625 431.519531 579.855469 429.03125 579.253906 426.882812 C 578.738281 424.738281 577.878906 422.335938 577.449219 421.5625 C 577.019531 420.703125 576.675781 419.503906 576.675781 418.816406 C 576.675781 416.925781 569.46875 399.84375 568.09375 398.558594 C 567.835938 398.300781 567.0625 396.925781 566.378906 395.554688 C 564.316406 391.433594 556.417969 379.328125 552.300781 373.921875 C 548.265625 368.683594 530.839844 351.347656 524.230469 346.023438 C 512.554688 336.667969 476.246094 315.292969 472.039062 315.292969 C 471.523438 315.292969 471.097656 314.863281 471.097656 314.433594 C 471.097656 313.921875 470.152344 313.578125 468.949219 313.578125 C 467.75 313.578125 466.804688 313.148438 466.804688 312.71875 C 466.804688 312.203125 466.203125 311.859375 465.515625 311.859375 C 464.828125 311.859375 463.542969 311.515625 462.683594 311.085938 C 461.910156 310.660156 460.28125 309.972656 459.078125 309.457031 C 457.875 308.941406 455.042969 307.738281 452.726562 306.796875 C 448.691406 305.078125 447.0625 304.648438 447.0625 305.335938 Z M 447.0625 305.335938 " fill-opacity="1" fill-rule="nonzero"/><path fill="#ffffff" d="M 402.597656 313.578125 C 392.898438 346.882812 389.121094 371.605469 389.207031 401.132812 C 389.207031 417.011719 389.550781 422.421875 391.09375 431.519531 C 401.394531 491.519531 435.214844 533.753906 497.707031 564.65625 C 514.101562 572.808594 531.269531 580.105469 532.898438 579.503906 C 533.414062 579.335938 530.324219 576.757812 526.117188 573.667969 C 514.1875 564.914062 502.425781 555.128906 492.640625 545.769531 C 480.109375 533.667969 464.742188 516.671875 458.390625 507.660156 C 450.324219 496.15625 445.34375 488.6875 445.34375 487.828125 C 445.34375 487.402344 445 486.972656 444.484375 486.972656 C 444.054688 486.972656 443.628906 486.542969 443.628906 486.027344 C 443.628906 485.511719 442.855469 483.96875 441.910156 482.679688 C 439.25 478.988281 431.609375 464.394531 428.777344 457.785156 C 426.460938 452.378906 425 448.859375 423.113281 444.738281 C 422.167969 442.507812 421.308594 440.101562 421.308594 439.417969 C 421.308594 438.730469 420.964844 437.871094 420.449219 437.613281 C 420.023438 437.355469 419.59375 436.15625 419.59375 435.039062 C 419.59375 433.921875 419.25 432.722656 418.734375 432.464844 C 418.304688 432.207031 417.875 431.003906 417.875 429.886719 C 417.875 428.773438 417.53125 427.570312 417.015625 427.3125 C 416.589844 427.054688 416.160156 425.683594 416.160156 424.308594 C 416.160156 422.9375 415.816406 421.5625 415.300781 421.304688 C 414.871094 421.046875 414.441406 419.671875 414.441406 418.300781 C 414.441406 416.925781 414.097656 415.554688 413.582031 415.296875 C 413.15625 415.039062 412.726562 413.664062 412.726562 412.378906 C 412.726562 411.089844 412.382812 409.714844 411.953125 409.289062 C 411.523438 408.773438 410.921875 406.796875 410.664062 404.738281 C 410.40625 402.761719 409.894531 399.5 409.636719 397.441406 C 409.378906 395.46875 408.777344 393.492188 408.347656 392.976562 C 407.917969 392.546875 407.574219 390.058594 407.574219 387.398438 C 407.574219 384.738281 407.230469 382.246094 406.800781 381.820312 C 405.515625 380.53125 404.914062 370.316406 404.3125 338.898438 C 403.796875 312.890625 403.625 310.144531 402.597656 313.578125 Z M 402.597656 313.578125 " fill-opacity="1" fill-rule="nonzero"/><path fill="#ffffff" d="M 289.976562 363.105469 C 255.382812 402.164062 234.695312 440.101562 226.796875 478.902344 C 224.050781 492.636719 223.023438 516.328125 224.652344 530.578125 C 228 559.847656 239.503906 589.71875 258.644531 619.25 C 266.371094 631.179688 287.230469 658.21875 289.976562 659.9375 C 290.40625 660.195312 288.429688 655.472656 285.511719 649.464844 C 268.34375 613.242188 258.128906 576.328125 254.695312 538.476562 C 253.324219 522.765625 254.179688 490.40625 256.414062 474.523438 C 261.5625 438.386719 274.097656 400.53125 292.722656 365.25 C 295.984375 359.070312 298.558594 353.921875 298.386719 353.921875 C 298.214844 353.921875 294.441406 358.042969 289.976562 363.105469 Z M 289.976562 363.105469 " fill-opacity="1" fill-rule="nonzero"/><g clip-path="url(#cc0ebddd31)"><path fill="#0052ff" d="M 781.132812 154.605469 C 781.132812 156.28125 781.09375 157.953125 781.011719 159.628906 C 780.929688 161.300781 780.804688 162.972656 780.640625 164.640625 C 780.476562 166.308594 780.273438 167.96875 780.027344 169.625 C 779.78125 171.285156 779.492188 172.933594 779.167969 174.578125 C 778.839844 176.222656 778.472656 177.855469 778.066406 179.480469 C 777.660156 181.105469 777.210938 182.71875 776.726562 184.324219 C 776.238281 185.925781 775.714844 187.515625 775.148438 189.09375 C 774.585938 190.671875 773.980469 192.234375 773.339844 193.78125 C 772.699219 195.332031 772.019531 196.863281 771.304688 198.375 C 770.589844 199.890625 769.835938 201.386719 769.046875 202.863281 C 768.257812 204.34375 767.429688 205.800781 766.570312 207.238281 C 765.707031 208.671875 764.8125 210.089844 763.878906 211.480469 C 762.949219 212.875 761.984375 214.246094 760.988281 215.589844 C 759.988281 216.9375 758.957031 218.257812 757.894531 219.550781 C 756.832031 220.847656 755.738281 222.113281 754.613281 223.355469 C 753.488281 224.597656 752.332031 225.808594 751.148438 226.996094 C 749.964844 228.179688 748.75 229.335938 747.511719 230.460938 C 746.269531 231.585938 745 232.679688 743.707031 233.742188 C 742.410156 234.804688 741.089844 235.835938 739.742188 236.832031 C 738.398438 237.832031 737.027344 238.796875 735.636719 239.726562 C 734.242188 240.65625 732.828125 241.554688 731.390625 242.414062 C 729.953125 243.277344 728.496094 244.101562 727.019531 244.890625 C 725.539062 245.683594 724.042969 246.433594 722.53125 247.152344 C 721.015625 247.867188 719.484375 248.546875 717.9375 249.1875 C 716.386719 249.828125 714.824219 250.429688 713.25 250.996094 C 711.671875 251.558594 710.082031 252.085938 708.476562 252.570312 C 706.875 253.058594 705.257812 253.503906 703.632812 253.910156 C 702.007812 254.320312 700.375 254.6875 698.730469 255.011719 C 697.089844 255.339844 695.4375 255.625 693.78125 255.871094 C 692.125 256.117188 690.460938 256.324219 688.792969 256.488281 C 687.125 256.652344 685.457031 256.773438 683.78125 256.855469 C 682.109375 256.9375 680.433594 256.980469 678.757812 256.980469 C 677.082031 256.980469 675.410156 256.9375 673.734375 256.855469 C 672.0625 256.773438 670.390625 256.652344 668.722656 256.488281 C 667.058594 256.324219 665.394531 256.117188 663.738281 255.871094 C 662.082031 255.625 660.429688 255.339844 658.785156 255.011719 C 657.144531 254.6875 655.507812 254.320312 653.882812 253.914062 C 652.257812 253.503906 650.644531 253.058594 649.042969 252.570312 C 647.4375 252.085938 645.847656 251.558594 644.269531 250.996094 C 642.691406 250.429688 641.128906 249.828125 639.582031 249.1875 C 638.035156 248.546875 636.503906 247.867188 634.988281 247.152344 C 633.472656 246.433594 631.976562 245.683594 630.5 244.890625 C 629.023438 244.101562 627.566406 243.277344 626.128906 242.414062 C 624.691406 241.554688 623.277344 240.65625 621.882812 239.726562 C 620.488281 238.796875 619.121094 237.832031 617.773438 236.832031 C 616.429688 235.835938 615.109375 234.804688 613.8125 233.742188 C 612.519531 232.679688 611.25 231.585938 610.007812 230.460938 C 608.765625 229.335938 607.554688 228.179688 606.367188 226.996094 C 605.183594 225.808594 604.03125 224.597656 602.902344 223.355469 C 601.777344 222.113281 600.683594 220.847656 599.621094 219.550781 C 598.558594 218.257812 597.527344 216.9375 596.53125 215.589844 C 595.53125 214.246094 594.566406 212.875 593.636719 211.480469 C 592.707031 210.089844 591.808594 208.671875 590.949219 207.238281 C 590.085938 205.800781 589.261719 204.34375 588.472656 202.863281 C 587.683594 201.386719 586.929688 199.890625 586.214844 198.375 C 585.496094 196.863281 584.816406 195.332031 584.175781 193.78125 C 583.535156 192.234375 582.933594 190.671875 582.367188 189.09375 C 581.804688 187.515625 581.277344 185.925781 580.792969 184.324219 C 580.304688 182.71875 579.859375 181.105469 579.453125 179.480469 C 579.046875 177.855469 578.679688 176.222656 578.351562 174.578125 C 578.023438 172.933594 577.738281 171.285156 577.492188 169.625 C 577.246094 167.96875 577.042969 166.308594 576.878906 164.640625 C 576.710938 162.972656 576.589844 161.300781 576.507812 159.628906 C 576.425781 157.953125 576.382812 156.28125 576.382812 154.605469 C 576.382812 152.929688 576.425781 151.253906 576.507812 149.582031 C 576.589844 147.910156 576.710938 146.238281 576.878906 144.570312 C 577.042969 142.902344 577.246094 141.242188 577.492188 139.582031 C 577.738281 137.925781 578.023438 136.277344 578.351562 134.632812 C 578.679688 132.988281 579.046875 131.355469 579.453125 129.730469 C 579.859375 128.105469 580.304688 126.492188 580.792969 124.886719 C 581.277344 123.285156 581.804688 121.695312 582.367188 120.117188 C 582.933594 118.539062 583.535156 116.976562 584.175781 115.429688 C 584.816406 113.878906 585.496094 112.347656 586.214844 110.835938 C 586.929688 109.320312 587.683594 107.824219 588.472656 106.347656 C 589.261719 104.867188 590.085938 103.410156 590.949219 101.972656 C 591.808594 100.535156 592.707031 99.121094 593.636719 97.730469 C 594.566406 96.335938 595.53125 94.964844 596.53125 93.621094 C 597.527344 92.273438 598.558594 90.953125 599.621094 89.660156 C 600.683594 88.363281 601.777344 87.097656 602.902344 85.855469 C 604.03125 84.613281 605.183594 83.398438 606.367188 82.214844 C 607.554688 81.03125 608.765625 79.875 610.007812 78.75 C 611.25 77.625 612.519531 76.53125 613.8125 75.46875 C 615.109375 74.40625 616.429688 73.375 617.773438 72.375 C 619.121094 71.378906 620.488281 70.414062 621.882812 69.484375 C 623.277344 68.550781 624.691406 67.65625 626.128906 66.796875 C 627.566406 65.933594 629.023438 65.109375 630.5 64.320312 C 631.976562 63.527344 633.472656 62.777344 634.988281 62.058594 C 636.503906 61.34375 638.035156 60.664062 639.582031 60.023438 C 641.128906 59.382812 642.691406 58.777344 644.269531 58.214844 C 645.847656 57.648438 647.4375 57.125 649.042969 56.636719 C 650.644531 56.152344 652.257812 55.707031 653.882812 55.296875 C 655.507812 54.890625 657.144531 54.523438 658.785156 54.199219 C 660.429688 53.871094 662.082031 53.585938 663.738281 53.339844 C 665.394531 53.09375 667.058594 52.886719 668.722656 52.722656 C 670.390625 52.558594 672.0625 52.4375 673.734375 52.351562 C 675.410156 52.269531 677.082031 52.230469 678.757812 52.230469 C 680.433594 52.230469 682.109375 52.269531 683.78125 52.351562 C 685.457031 52.4375 687.125 52.558594 688.792969 52.722656 C 690.460938 52.886719 692.125 53.09375 693.78125 53.339844 C 695.4375 53.585938 697.089844 53.871094 698.730469 54.199219 C 700.375 54.523438 702.007812 54.890625 703.632812 55.296875 C 705.257812 55.707031 706.875 56.152344 708.476562 56.636719 C 710.082031 57.125 711.671875 57.648438 713.25 58.214844 C 714.824219 58.777344 716.386719 59.382812 717.9375 60.023438 C 719.484375 60.664062 721.015625 61.34375 722.53125 62.058594 C 724.042969 62.777344 725.539062 63.527344 727.019531 64.320312 C 728.496094 65.109375 729.953125 65.933594 731.390625 66.796875 C 732.828125 67.65625 734.242188 68.550781 735.636719 69.484375 C 737.027344 70.414062 738.398438 71.378906 739.742188 72.375 C 741.089844 73.375 742.410156 74.40625 743.707031 75.46875 C 745 76.53125 746.269531 77.625 747.511719 78.75 C 748.75 79.875 749.964844 81.03125 751.148438 82.214844 C 752.332031 83.398438 753.488281 84.613281 754.613281 85.855469 C 755.738281 87.097656 756.832031 88.363281 757.894531 89.660156 C 758.957031 90.953125 759.988281 92.273438 760.988281 93.621094 C 761.984375 94.964844 762.949219 96.335938 763.878906 97.730469 C 764.8125 99.121094 765.707031 100.535156 766.570312 101.972656 C 767.429688 103.410156 768.257812 104.867188 769.046875 106.347656 C 769.835938 107.824219 770.589844 109.320312 771.304688 110.835938 C 772.019531 112.347656 772.699219 113.878906 773.339844 115.429688 C 773.980469 116.976562 774.585938 118.539062 775.148438 120.117188 C 775.714844 121.695312 776.238281 123.285156 776.726562 124.886719 C 777.210938 126.492188 777.660156 128.105469 778.066406 129.730469 C 778.472656 131.355469 778.839844 132.988281 779.167969 134.632812 C 779.492188 136.277344 779.78125 137.925781 780.027344 139.582031 C 780.273438 141.242188 780.476562 142.902344 780.640625 144.570312 C 780.804688 146.238281 780.929688 147.910156 781.011719 149.582031 C 781.09375 151.253906 781.132812 152.929688 781.132812 154.605469 Z M 781.132812 154.605469 " fill-opacity="1" fill-rule="nonzero"/></g><path fill="#ffffff" d="M 679.210938 225.746094 C 718.890625 225.746094 751.058594 193.636719 751.058594 154.027344 C 751.058594 114.417969 718.890625 82.304688 679.210938 82.304688 C 641.566406 82.304688 610.683594 111.210938 607.617188 148 L 702.582031 148 L 702.582031 160.054688 L 607.617188 160.054688 C 610.683594 196.84375 641.566406 225.746094 679.210938 225.746094 Z M 679.210938 225.746094 " fill-opacity="1" fill-rule="nonzero"/></svg>